<svg width="24" height="24" viewBox="0 0 24 24" fill="none" xmlns="http://www.w3.org/2000/svg">
  <path d="M18 3H6C5.45 3 5 3.45 5 4C5 4.55 5.45 5 6 5H7V14.17L4.83 16.34C4.3 16.87 4 17.62 4 18.41V20C4 20.55 4.45 21 5 21H19C19.55 21 20 20.55 20 20V18.41C20 17.62 19.7 16.87 19.17 16.34L17 14.17V5H18C18.55 5 19 4.55 19 4C19 3.45 18.55 3 18 3ZM15 5H9V13.5C9 13.78 8.78 14 8.5 14C8.22 14 8 13.78 8 13.5V5H9V7.67C9 8.22 9.45 8.67 10 8.67C10.55 8.67 11 8.22 11 7.67V5H13V7.67C13 8.22 13.45 8.67 14 8.67C14.55 8.67 15 8.22 15 7.67V5Z" fill="#FF69B4"/>
</svg> 